<?xml version="1.0" encoding="UTF-8"?>
<svg width="23px" height="15px" viewBox="0 0 23 15" version="1.1" xmlns="http://www.w3.org/2000/svg" xmlns:xlink="http://www.w3.org/1999/xlink">
    <!-- Generator: Sketch 47.1 (45422) - http://www.bohemiancoding.com/sketch -->
    <title>keyboard</title>
    <desc>Created with Sketch.</desc>
    <defs></defs>
    <g id="Page-1" stroke="none" stroke-width="1" fill="none" fill-rule="evenodd">
        <g id="Artboard" transform="translate(0.000000, -28.000000)" stroke="#A5A4A3" stroke-width="2">
            <g id="keyboard" transform="translate(2.000000, 30.000000)">
                <rect id="Rectangle" x="-1" y="-1" width="21" height="13" rx="1"></rect>
                <path d="M4,8.5 L15,8.5" id="Line" stroke-linejoin="round"></path>
                <path d="M1,8.5 L3,8.5" id="Line" stroke-linejoin="round"></path>
                <path d="M16,8.5 L18,8.5" id="Line" stroke-linejoin="round"></path>
                <path d="M4,5.5 L6,5.5" id="Line" stroke-linejoin="round"></path>
                <path d="M7,5.5 L9,5.5" id="Line" stroke-linejoin="round"></path>
                <path d="M10,5.5 L12,5.5" id="Line" stroke-linejoin="round"></path>
                <path d="M1,5.5 L3,5.5" id="Line" stroke-linejoin="round"></path>
                <path d="M10,2.5 L12,2.5" id="Line" stroke-linejoin="round"></path>
                <path d="M7,2.5 L9,2.5" id="Line" stroke-linejoin="round"></path>
                <path d="M4,2.5 L6,2.5" id="Line" stroke-linejoin="round"></path>
                <path d="M13,2.5 L15,2.5" id="Line" stroke-linejoin="round"></path>
                <path d="M16,2.5 L18,2.5" id="Line" stroke-linejoin="round"></path>
                <path d="M1,2.5 L3,2.5" id="Line" stroke-linejoin="round"></path>
                <path d="M13,5.5 L18,5.5" id="Line" stroke-linejoin="round"></path>
            </g>
        </g>
    </g>
</svg>